<?xml version="1.0" encoding="UTF-8" standalone="no"?>
<svg xmlns:dc="http://purl.org/dc/elements/1.1/" xmlns:cc="http://creativecommons.org/ns#" xmlns:rdf="http://www.w3.org/1999/02/22-rdf-syntax-ns#" xmlns:svg="http://www.w3.org/2000/svg" xmlns="http://www.w3.org/2000/svg" xmlns:sodipodi="http://sodipodi.sourceforge.net/DTD/sodipodi-0.dtd" xmlns:inkscape="http://www.inkscape.org/namespaces/inkscape" height="43" width="240" version="1.1" viewBox="0 0 240 43.000001" id="svg2" inkscape:version="0.92.3 (2405546, 2018-03-11)" sodipodi:docname="UbuntuBudgie-Wordmark-white.svg">
  <defs id="defs16"></defs>
  <title id="title4">budgie-remix Wordmark</title>
  <metadata id="metadata6"></metadata>
  <g id="g4170" transform="translate(-6,0)">
    <path inkscape:connector-curvature="0" id="path4139" style="font-style:normal;font-variant:normal;font-weight:normal;font-stretch:normal;font-size:30px;line-height:125%;font-family:Ubuntu;-inkscape-font-specification:Ubuntu;letter-spacing:0px;word-spacing:0px;fill:#ececec;fill-opacity:1" d="m 30.510001,30.910001 q -0.96,0.24 -2.55,0.51 -1.56,0.27 -3.63,0.27 -1.8,0 -3.03,-0.51 -1.23,-0.54 -1.98,-1.5 -0.75,-0.96 -1.08,-2.25 -0.33,-1.32 -0.33,-2.91 l 0,-8.76 2.79,0 0,8.16 q 0,2.85 0.9,4.08 0.9,1.23 3.03,1.23 0.45,0 0.93,-0.03 0.48,-0.03 0.9,-0.06 0.42,-0.06 0.75,-0.09 0.36,-0.06 0.51,-0.12 l 0,-13.17 2.79,0 0,15.15 z"></path>
    <path inkscape:connector-curvature="0" id="path4141" style="font-style:normal;font-variant:normal;font-weight:normal;font-stretch:normal;font-size:30px;line-height:125%;font-family:Ubuntu;-inkscape-font-specification:Ubuntu;letter-spacing:0px;word-spacing:0px;fill:#ececec;fill-opacity:1" d="m 38.106563,16.450001 q 0.51,-0.33 1.53,-0.69 1.05,-0.36 2.4,-0.36 1.68,0 2.97,0.6 1.32,0.6 2.22,1.68 0.9,1.08 1.35,2.58 0.48,1.5 0.48,3.3 0,1.89 -0.57,3.42 -0.54,1.5 -1.56,2.55 -1.02,1.05 -2.46,1.62 -1.44,0.57 -3.24,0.57 -1.95,0 -3.45,-0.27 -1.5,-0.27 -2.46,-0.54 l 0,-22.35 2.79,-0.48 0,8.37 z m 0,12.48 q 0.42,0.12 1.17,0.24 0.78,0.09 1.92,0.09 2.25,0 3.6,-1.47 1.35,-1.5 1.35,-4.23 0,-1.2 -0.24,-2.25 -0.24,-1.05 -0.78,-1.8 -0.54,-0.78 -1.41,-1.2 -0.84,-0.45 -2.04,-0.45 -1.14,0 -2.1,0.39 -0.96,0.39 -1.47,0.81 l 0,9.87 z"></path>
    <path inkscape:connector-curvature="0" id="path4143" style="font-style:normal;font-variant:normal;font-weight:normal;font-stretch:normal;font-size:30px;line-height:125%;font-family:Ubuntu;-inkscape-font-specification:Ubuntu;letter-spacing:0px;word-spacing:0px;fill:#ececec;fill-opacity:1" d="m 65.431876,30.910001 q -0.96,0.24 -2.55,0.51 -1.56,0.27 -3.63,0.27 -1.8,0 -3.03,-0.51 -1.23,-0.54 -1.98,-1.5 -0.75,-0.96 -1.08,-2.25 -0.33,-1.32 -0.33,-2.91 l 0,-8.76 2.79,0 0,8.16 q 0,2.85 0.9,4.08 0.9,1.23 3.03,1.23 0.45,0 0.93,-0.03 0.48,-0.03 0.9,-0.06 0.42,-0.06 0.75,-0.09 0.36,-0.06 0.51,-0.12 l 0,-13.17 2.79,0 0,15.15 z"></path>
    <path inkscape:connector-curvature="0" id="path4145" style="font-style:normal;font-variant:normal;font-weight:normal;font-stretch:normal;font-size:30px;line-height:125%;font-family:Ubuntu;-inkscape-font-specification:Ubuntu;letter-spacing:0px;word-spacing:0px;fill:#ececec;fill-opacity:1" d="m 70.238438,16.210001 q 0.96,-0.24 2.55,-0.51 1.59,-0.27 3.66,-0.27 1.86,0 3.09,0.54 1.23,0.51 1.95,1.47 0.75,0.93 1.05,2.25 0.3,1.32 0.3,2.91 l 0,8.76 -2.79,0 0,-8.16 q 0,-1.44 -0.21,-2.46 -0.18,-1.02 -0.63,-1.65 -0.45,-0.63 -1.2,-0.9 -0.75,-0.3 -1.86,-0.3 -0.45,0 -0.93,0.03 -0.48,0.03 -0.93,0.09 -0.42,0.03 -0.78,0.09 -0.33,0.06 -0.48,0.09 l 0,13.17 -2.79,0 0,-15.15 z"></path>
    <path inkscape:connector-curvature="0" id="path4147" style="font-style:normal;font-variant:normal;font-weight:normal;font-stretch:normal;font-size:30px;line-height:125%;font-family:Ubuntu;-inkscape-font-specification:Ubuntu;letter-spacing:0px;word-spacing:0px;fill:#ececec;fill-opacity:1" d="m 90.075001,15.760001 5.91,0 0,2.34 -5.91,0 0,7.2 q 0,1.17 0.18,1.95 0.18,0.75 0.54,1.2 0.36,0.42 0.9,0.6 0.54,0.18 1.26,0.18 1.26,0 2.01,-0.27 0.78,-0.3 1.08,-0.42 l 0.54,2.31 q -0.42,0.21 -1.47,0.51 -1.05,0.33 -2.4,0.33 -1.59,0 -2.64,-0.39 -1.02,-0.42 -1.65,-1.23 -0.63,-0.81 -0.9,-1.98 -0.24,-1.2 -0.24,-2.76 l 0,-13.92 2.79,-0.48 0,4.83 z"></path>
    <path inkscape:connector-curvature="0" id="path4149" style="font-style:normal;font-variant:normal;font-weight:normal;font-stretch:normal;font-size:30px;line-height:125%;font-family:Ubuntu;-inkscape-font-specification:Ubuntu;letter-spacing:0px;word-spacing:0px;fill:#ececec;fill-opacity:1" d="m 111.95531,30.910001 q -0.96,0.24 -2.55,0.51 -1.56,0.27 -3.63,0.27 -1.8,0 -3.03,-0.51 -1.23,-0.54 -1.98,-1.5 -0.75,-0.96 -1.079997,-2.25 -0.33,-1.32 -0.33,-2.91 l 0,-8.76 2.789997,0 0,8.16 q 0,2.85 0.9,4.08 0.9,1.23 3.03,1.23 0.45,0 0.93,-0.03 0.48,-0.03 0.9,-0.06 0.42,-0.06 0.75,-0.09 0.36,-0.06 0.51,-0.12 l 0,-13.17 2.79,0 0,15.15 z"></path>
    <path inkscape:connector-curvature="0" id="path4151" style="font-style:normal;font-variant:normal;font-weight:bold;font-stretch:normal;font-size:medium;line-height:125%;font-family:'Clear Sans';-inkscape-font-specification:'Clear Sans Bold';letter-spacing:0px;word-spacing:0px;fill:#ececec;fill-opacity:1" d="m 139.00055,25.485977 q 0,3.046875 -2.09473,4.467774 -2.09473,1.40625 -5.81543,1.40625 l -7.61719,0 0,-20.273438 7.16309,0 q 3.89648,0 5.58105,1.142578 1.68457,1.12793 1.68457,3.588867 0,1.889649 -0.92285,3.061524 -0.9082,1.171875 -2.85644,1.567383 2.54883,0.351562 3.70605,1.611328 1.17188,1.259765 1.17188,3.427734 z m -5.27344,-8.759765 q 0,-1.157227 -0.84961,-1.59668 -0.84961,-0.454102 -2.63672,-0.454102 l -2.63672,0 0,4.350586 2.51953,0 q 1.83106,0 2.70997,-0.512695 0.89355,-0.512695 0.89355,-1.787109 z m 1.05469,8.393554 q 0,-1.362304 -0.92285,-1.918945 -0.92286,-0.571289 -3.45704,-0.571289 l -2.79785,0 0,5.068359 2.09473,0 q 2.41699,0 3.32519,-0.234375 0.92286,-0.234375 1.33301,-0.791015 0.42481,-0.556641 0.42481,-1.552735 z"></path>
    <path inkscape:connector-curvature="0" id="path4153" style="font-style:normal;font-variant:normal;font-weight:bold;font-stretch:normal;font-size:medium;line-height:125%;font-family:'Clear Sans';-inkscape-font-specification:'Clear Sans Bold';letter-spacing:0px;word-spacing:0px;fill:#ececec;fill-opacity:1" d="m 152.22809,31.360001 0,-1.977539 q -0.9961,1.069335 -2.44629,1.757812 -1.43555,0.673828 -2.76856,0.673828 -2.60742,0 -3.64746,-1.435547 -1.04004,-1.450195 -1.04004,-4.116211 l 0,-10.268554 3.7793,0 0,8.466797 q 0,1.625976 0.19043,2.490234 0.19043,0.864258 0.61523,1.201172 0.43946,0.322265 1.27442,0.322265 1.68457,0 4.04297,-2.211914 l 0,-10.268554 3.77929,0 0,15.366211 -3.77929,0 z"></path>
    <path inkscape:connector-curvature="0" id="path4155" style="font-style:normal;font-variant:normal;font-weight:bold;font-stretch:normal;font-size:medium;line-height:125%;font-family:'Clear Sans';-inkscape-font-specification:'Clear Sans Bold';letter-spacing:0px;word-spacing:0px;fill:#ececec;fill-opacity:1" d="m 170.3482,31.360001 0,-1.494141 q -1.05468,0.893555 -2.22656,1.420898 -1.17187,0.527344 -2.66601,0.527344 -2.9004,0 -4.43848,-2.094726 -1.53809,-2.094727 -1.53809,-5.917969 0,-3.911133 1.68457,-6.079102 1.69922,-2.167968 4.76075,-2.167968 1.08398,0 2.22656,0.454101 1.14258,0.439453 1.88965,1.12793 l 0,-7.587891 3.77929,0 0,21.811524 -3.47168,0 z m -0.30761,-11.103516 q -0.60059,-0.541992 -1.49414,-0.952148 -0.87891,-0.424805 -1.80176,-0.424805 -1.52344,0 -2.44629,1.318359 -0.92285,1.303711 -0.92285,3.544922 0,2.211914 0.74707,3.47168 0.76172,1.259765 2.34375,1.259765 0.9375,0 1.90429,-0.424804 0.98145,-0.439453 1.66993,-1.069336 l 0,-6.723633 z"></path>
    <path inkscape:connector-curvature="0" id="path4157" style="font-style:normal;font-variant:normal;font-weight:bold;font-stretch:normal;font-size:medium;line-height:125%;font-family:'Clear Sans';-inkscape-font-specification:'Clear Sans Bold';letter-spacing:0px;word-spacing:0px;fill:#ececec;fill-opacity:1" d="m 191.63238,31.067032 q 0,3.076172 -1.88965,4.570312 -1.88964,1.508789 -6.06445,1.508789 -3.44238,0 -6.02051,-1.318359 l 1.11329,-3.09082 q 2.38769,1.113281 4.90722,1.113281 2.34375,0 3.25195,-0.673828 0.92286,-0.673828 0.92286,-2.270508 l 0,-1.259766 q -1.875,1.713868 -4.52637,1.713868 -2.8125,0 -4.42383,-2.021485 -1.61133,-2.021484 -1.61133,-5.815429 0,-2.373047 0.74707,-4.174805 0.76172,-1.816406 2.21192,-2.797852 1.46484,-0.996093 3.53027,-0.996093 1.21582,0 2.43164,0.541992 1.21582,0.527343 2.03613,1.347656 l 0.49805,-1.450195 2.88574,0 0,15.073242 z m -3.77929,-10.810547 q -1.55274,-1.376953 -3.38379,-1.376953 -1.37696,0 -2.3291,1.259765 -0.95215,1.259766 -0.95215,3.325196 0,2.34375 0.83496,3.457031 0.84961,1.113281 2.19726,1.113281 1.875,0 3.63282,-1.508789 l 0,-6.269531 z"></path>
    <path inkscape:connector-curvature="0" id="path4159" style="font-style:normal;font-variant:normal;font-weight:bold;font-stretch:normal;font-size:medium;line-height:125%;font-family:'Clear Sans';-inkscape-font-specification:'Clear Sans Bold';letter-spacing:0px;word-spacing:0px;fill:#ececec;fill-opacity:1" d="m 199.87945,11.804337 q 0,1.069335 -0.52734,1.49414 -0.52734,0.424805 -1.61133,0.424805 -1.20117,0 -1.64062,-0.498047 -0.42481,-0.498047 -0.42481,-1.420898 0,-1.025391 0.46875,-1.464844 0.46875,-0.454102 1.59668,-0.454102 1.14258,0 1.64063,0.439453 0.49804,0.424805 0.49804,1.479493 z m -3.99902,19.555664 0,-15.366211 3.7793,0 0,15.366211 -3.7793,0 z"></path>
    <path inkscape:connector-curvature="0" id="path4161" style="font-style:normal;font-variant:normal;font-weight:bold;font-stretch:normal;font-size:medium;line-height:125%;font-family:'Clear Sans';-inkscape-font-specification:'Clear Sans Bold';letter-spacing:0px;word-spacing:0px;fill:#ececec;fill-opacity:1" d="m 207.02789,24.665665 q 0.10254,2.050781 0.99609,2.944336 0.89356,0.893554 2.8125,0.893554 1.11329,0 1.94825,-0.27832 0.84961,-0.27832 1.47949,-1.069336 l 2.8125,2.006836 q -0.92285,1.333008 -2.40234,1.992187 -1.46485,0.65918 -4.01368,0.65918 -3.79394,0 -5.66894,-1.992187 -1.86035,-1.992188 -1.86035,-6.020508 0,-8.24707 7.38281,-8.24707 3.28125,0 4.99512,1.860351 1.72851,1.845703 1.72851,5.390625 l 0,1.860352 -10.20996,0 z m 6.45996,-2.607422 q 0,-3.500977 -3.06152,-3.500977 -1.01074,0 -1.65527,0.351563 -0.64454,0.336914 -1.04004,1.02539 -0.38086,0.673828 -0.60059,2.124024 l 6.35742,0 z"></path>
    <path style="fill:#ececec;fill-opacity:1" inkscape:connector-curvature="0" id="path12" d="m 227.51647,5.7674836 a 7.0021411,7.0021411 0 0 0 -7.00215,7.0021414 7.0021411,7.0021411 0 0 0 7.00215,7.002141 7.0021411,7.0021411 0 0 0 7.00214,-7.002141 7.0021411,7.0021411 0 0 0 -7.00214,-7.0021414 z m 1.96938,1.0503204 c 0.19255,0 0.36761,0.03501 0.56892,0.06047 0.84026,0.140107 1.69802,0.761452 2.22319,1.663073 0.7002,1.207805 0.54266,2.669472 -0.26259,3.501071 -0.39386,0.402623 -0.52516,0.437634 -0.78774,0.612688 0.17506,-0.288934 0.24507,-0.402623 0.23632,-0.639042 0.0351,-0.140042 -0.0175,-0.262516 -0.0437,-0.332537 -0.0875,-0.262644 -0.28009,-0.367676 -0.49016,-0.49015 -0.26257,-0.157612 -0.56892,-0.201344 -0.76145,-0.201344 -0.13129,0 -0.21006,0 -0.40262,0.0522 -0.91028,0.227506 -1.90809,-0.131259 -2.38073,-0.962668 -0.57767,-0.997932 -0.21881,-2.275696 0.80525,-2.862156 0.29759,-0.175054 0.65642,-0.350108 0.98029,-0.385118 0.0875,0 0.17507,0 0.26259,-0.01719 l 0.0875,0 z m -5.38287,2.363159 c 0.17506,0 0.35012,0.01783 0.52517,0.06047 0.56017,0.140043 0.63898,0.227442 0.91906,0.367612 -0.33261,-0.03564 -0.45514,-0.03564 -0.65642,0.08747 -0.12254,0.08759 -0.21006,0.175117 -0.26258,0.22757 -0.17506,0.218849 -0.17506,0.437697 -0.17506,0.673988 0,0.297528 0.11379,0.586398 0.20132,0.74401 0.0875,0.122473 0.11378,0.17499 0.26257,0.350043 0.6477,0.656482 0.83148,1.689235 0.35012,2.538213 -0.56893,0.9803 -1.86435,1.312965 -2.88839,0.717783 -0.29759,-0.17499 -0.61268,-0.393839 -0.81403,-0.656483 -0.21882,-0.297528 -0.30635,-0.52516 -0.42012,-0.813903 -0.2976,-0.787741 -0.19256,-1.838126 0.32384,-2.748468 0.56892,-1.015183 1.61928,-1.601645 2.6258,-1.575419 z m 5.82056,4.787747 c 1.13785,0 2.07442,0.962858 2.07442,2.135653 0,0.350107 -0.0263,0.761515 -0.15754,1.050321 -0.1488,0.350107 -0.29759,0.525161 -0.49891,0.787805 -0.52515,0.656482 -1.50546,1.085332 -2.53827,1.085332 -1.40043,0 -2.59079,-0.875268 -2.88838,-1.9606 -0.17506,-0.568892 -0.1313,-0.682773 -0.14881,-0.997868 0.15756,0.297654 0.21883,0.402686 0.42014,0.52516 0.13128,0.06047 0.26258,0.08759 0.3326,0.08759 0.26257,0.04393 0.45513,-0.05283 0.6652,-0.175053 0.26258,-0.148763 0.45514,-0.385118 0.55142,-0.55145 0.07,-0.122475 0.10503,-0.175054 0.17505,-0.376397 0.24508,-0.918999 1.05032,-1.592924 2.01312,-1.592924 z"></path>
  </g>
</svg>
