<?xml version="1.0" encoding="UTF-8" standalone="no"?>
<svg xmlns:rdf="http://www.w3.org/1999/02/22-rdf-syntax-ns#" xmlns="http://www.w3.org/2000/svg" height="128" width="128" version="1.1" xmlns:cc="http://creativecommons.org/ns#" xmlns:xlink="http://www.w3.org/1999/xlink" viewBox="0 0 128 128" xmlns:dc="http://purl.org/dc/elements/1.1/">
 <title>budgie-remix Logo</title>
 <metadata>
  <rdf:RDF>
   <cc:Work rdf:about="">
    <dc:format>image/svg+xml</dc:format>
    <dc:type rdf:resource="http://purl.org/dc/dcmitype/StillImage"/>
    <dc:title>budgie-remix Logo</dc:title>
    <dc:creator>
     <cc:Agent>
      <dc:title>HEXcube and Joshua &quot;Foggalong&quot; Fogg</dc:title>
     </cc:Agent>
    </dc:creator>
    <cc:license rdf:resource="http://creativecommons.org/licenses/by-sa/4.0/"/>
    <dc:source>Budgie Logo by Yuri Henrique</dc:source>
    <dc:description>Prototype logo for budgie-remix with medium sized Budgie shapes</dc:description>
   </cc:Work>
  </rdf:RDF>
 </metadata>
 <circle cy="64" cx="64" r="64" fill="#404552"/>
 <path id="budgie" fill="#fff" d="m85.15 72.45c-8.1195 0-14.945 5.768-17.112 13.412-0.45738 1.6136-0.77205 2.1664-1.3874 3.2374-0.7935 1.3811-2.4043 3.3756-4.6248 4.6248-1.8066 1.0164-3.3635 1.8811-5.69 1.5306-0.6056-0.0912-1.6786-0.2599-2.7522-0.8776-1.7112-0.9851-2.2754-1.85-3.5842-4.352 0.18685 2.6703-0.15747 3.6445 1.1562 8.3245 2.615 9.3165 12.664 16.65 24.512 16.65 8.783 0 16.924-3.6606 21.504-9.249 1.6752-2.0438 2.9367-3.6563 4.1624-6.475 1.1152-2.5644 1.3885-5.852 1.3893-8.788 0.003-9.9695-7.8685-18.037-17.574-18.037z"/>
 <use xlink:href="#budgie" transform="matrix(-.5 .86603 -.86603 -.5 151.42 40.574)" height="100%" width="100%" y="0" x="0"/>
 <use xlink:href="#budgie" transform="matrix(-.5 -.86603 .86603 -.5 40.574 151.42)" height="100%" width="100%" y="0" x="0"/>
</svg>
