<svg xmlns="http://www.w3.org/2000/svg" height="128" width="128" xmlns:xlink="http://www.w3.org/1999/xlink" viewBox="0 0 128 128">
 <circle cy="64" cx="64" r="64" fill="#404552"/>
 <path id="a" fill="#fff" d="m85.15 72.45c-8.12 0-14.95 5.77-17.1 13.4-0.47 1.63-0.78 2.18-1.4 3.25-0.8 1.38-2.4 3.38-4.62 4.62-1.8 1.02-3.37 1.9-5.7 1.53-0.6-0.1-1.67-0.26-2.75-0.87-1.7-1-2.27-1.85-3.58-4.35 0.2 2.67-0.16 3.64 1.16 8.32 2.6 9.32 12.66 16.65 24.5 16.65 8.8 0 16.93-3.66 21.5-9.25 1.7-2.04 2.95-3.66 4.17-6.47 1.12-2.57 1.4-5.86 1.4-8.8 0-9.96-7.88-18.03-17.58-18.03z"/>
 <use xlink:href="#a" height="100%" width="100%" transform="rotate(120 63.997 63.998)"/>
 <use xlink:href="#a" height="100%" width="100%" transform="rotate(240 63.998 63.997)"/>
</svg>
