<svg xmlns="http://www.w3.org/2000/svg" height="128" width="128" viewBox="0 0 128 128">
 <circle cy="64" cx="64" r="64" fill="#404552"/>
 <path d="m63 38c5.6-4 12.5-4.5 19-4 7.2 0.8 14.3 3.6 19 9 3.3 3.5 5.3 8.3 6 13l0.5 5.5c0.8 9.3-3.5 19-9.5 26-5.8 6.8-13.3 10.8-22 13-12.5 3.2-27 1.5-38-5.5-6.5-4.5-12.3-11.2-15.5-19-2.6-7.8-2.8-15.7-1.5-23.5 1.3 4.5 5 8.2 9.5 9.5s10.2 0.7 13.5-2.5c7-6.7 11.2-16.3 19-21.5z" fill="#fff"/>
 <path d="m113 58l-5.5 3.5-0.5-5.5zm-63 7.5c1.5-2.3 5-4 7-4 6 0 9 3.3 9 8.5s-5.8 9-11 9c-7.2 0-13.2-2-21-4 6-0.7 11.5-2.8 15-8z" fill="#5294e2"/>
 <circle cy="51.5" cx="88.5" r="4.5" fill="#404552"/>
 <circle cy="49.5" cx="90.5" r="1.5" fill="#fff"/>
</svg>
