<?xml version="1.0" encoding="UTF-8" standalone="no"?>
<svg xmlns:rdf="http://www.w3.org/1999/02/22-rdf-syntax-ns#" xmlns="http://www.w3.org/2000/svg" height="128" width="128" version="1.1" xmlns:cc="http://creativecommons.org/ns#" xmlns:dc="http://purl.org/dc/elements/1.1/" viewBox="0 0 128 128">
 <title>Budgie Logo</title>
 <metadata>
  <rdf:RDF>
   <cc:Work rdf:about="">
    <dc:format>image/svg+xml</dc:format>
    <dc:type rdf:resource="http://purl.org/dc/dcmitype/StillImage"/>
    <dc:title>Budgie Logo</dc:title>
    <dc:creator>
     <cc:Agent>
      <dc:title>Yuri Henrique</dc:title>
     </cc:Agent>
    </dc:creator>
    <dc:contributor>
     <cc:Agent>
      <dc:title>HEXcube</dc:title>
     </cc:Agent>
    </dc:contributor>
    <dc:description>Official logo for the Budgie desktop environment</dc:description>
    <cc:license rdf:resource="http://creativecommons.org/licenses/by-sa/4.0/"/>
   </cc:Work>
  </rdf:RDF>
 </metadata>
 <circle cy="64" cx="64" r="64" fill="#404552"/>
 <path fill="#fff" d="m63 38c5.6-4 12.5-4.5 19-4 7.2 0.85 14.3 3.6 19 9 3.25 3.5 5.35 8.35 6 13l0.5 5.5c0.85 9.3-3.5 19-9.5 26-5.8 6.85-13.35 10.75-22 13-12.5 3.2-26.9 1.5-38-5.5-6.5-4.5-12.25-11.15-15.5-19-2.6-7.85-2.8-15.65-1.5-23.5 1.3 4.5 5 8.2 9.5 9.5s10.15 0.65 13.5-2.5c7.1-6.65 11.15-16.3 19-21.5z"/>
 <path fill="#5294e2" d="m113 58-5.5 3.5-0.5-5.5zm-63 7.5c1.5-2.3 5-4 7-4 5.9 0 9 3.3 9 8.5s-5.8 9-11 9c-7.2 0-13.15-2-21-4 5.9-0.65 11.5-2.8 15-8z"/>
 <circle cy="51.5" cx="88.5" r="4.5" fill="#404552"/>
 <circle cy="49.5" cx="90.5" r="1.5" fill="#fff"/>
</svg>
