<svg xmlns="http://www.w3.org/2000/svg" height="128" width="128" viewBox="0 0 128 128">
 <circle cy="64" cx="64" r="64" fill="#e95420"/>
 <path fill="#fff" d="m20.3 55.4c-4.8 0-8.6 4-8.6 8.6 0 4.7 3.8 8.6 8.6 8.6 4.7 0 8.5-4 8.5-8.6 0-4.7-3.8-8.6-8.5-8.6zm61.3 39c-4 2.4-5.5 7.7-3.2 11.8 2.4 4 7.7 5.5 11.8 3 4-2.3 5.5-7.5 3-11.6-2.3-4-7.5-5.5-11.6-3.2zm-42.6-30.4c0-8.5 4-16 10.6-20.5l-6.3-10.5c-7.5 5-13 12.7-15.4 21.6 2 2.4 4 5.6 4 9.4s-2 7-4.8 9.4c2.2 9 8 16.6 15.4 21.6l6.5-10.5c-6-4.5-10-12-10-20.5zm25-25c13 0 24 10 25 22.8l12.2-0.2c-0.6-9.5-4.7-18-11-24.2-3.3 1.2-7 1-10.4-0.8-3.2-2-5.3-5-5.8-8.6-3.2-0.8-6.5-1.3-10-1.3-6 0-11.6 1.4-16.5 4l6 10.5c3-1.4 6.5-2.2 10.5-2.2zm0 50c-3.8 0-7.4-0.7-10.6-2.2l-6 10.7c5 2.4 10.7 3.8 16.6 3.8 3.5 0 6.8-0.5 10-1.3 0.5-3.5 2.6-6.7 5.8-8.6 3.3-1.8 7-2 10.3-0.8 7-6.2 11-14.7 11.8-24.2l-12.9-0.2c-1 12.8-12 23-25 23zm17.6-55.4c4 2.3 9.3 1 11.7-3.2 2.4-4 1-9.3-3-11.7-4.2-2.4-9.5-1-12 3-2.2 4.2-0.8 9.5 3.3 12z"/>
</svg>
