<?xml version="1.0" encoding="UTF-8" standalone="no"?>
<svg xmlns:rdf="http://www.w3.org/1999/02/22-rdf-syntax-ns#" xmlns="http://www.w3.org/2000/svg" height="128" width="128" version="1.1" y="0px" x="0px" xmlns:cc="http://creativecommons.org/ns#" xmlns:dc="http://purl.org/dc/elements/1.1/" viewBox="0 0 128 128">
 <title>Ubuntu CoF Logo</title>
 <metadata>
  <rdf:RDF>
   <cc:Work rdf:about="">
    <dc:format>image/svg+xml</dc:format>
    <dc:type rdf:resource="http://purl.org/dc/dcmitype/StillImage"/>
    <dc:title>Ubuntu CoF Logo</dc:title>
    <dc:source>https://design.ubuntu.com/wp-content/uploads/logo-ubuntu_cof-orange-hex.svg</dc:source>
    <dc:description>Derived from Ubuntu Circle of Friends icon</dc:description>
   </cc:Work>
  </rdf:RDF>
 </metadata>
 <circle id="roundel" cy="64" cx="64" r="64" fill="#e95420"/>
 <path id="CoF" fill="#fff" d="m20.256 55.412c-4.7446 0-8.5892 3.8445-8.5892 8.5892 0 4.7428 3.8445 8.5878 8.5892 8.5878 4.7428 0 8.5878-3.845 8.5878-8.5878 0-4.7433-3.8445-8.5878-8.5878-8.5878zm61.322 39.036c-4.1083 2.3716-5.5144 7.6224-3.1437 11.729 2.3721 4.1083 7.6224 5.5154 11.731 3.1437 4.1069-2.3712 5.514-7.6219 3.1424-11.73-2.3648-4.1078-7.6165-5.5149-11.724-3.1455zm-42.671-30.448c0-8.4884 4.2181-15.986 10.668-20.526l-6.277-10.517c-7.5166 5.022-13.108 12.699-15.43 21.691 2.713 2.2114 4.4464 5.5789 4.4464 9.354 0 3.7742-1.7334 7.1417-4.4469 9.3526 2.3222 8.9927 7.9138 16.67 15.43 21.691l6.28-10.519c-6.45-4.544-10.668-12.038-10.668-20.53zm25.088-25.088c13.107 0 23.859 10.05 24.986 22.864l12.241-0.17884c-0.6-9.461-4.734-17.957-11.085-24.201-3.2654 1.2337-7.0377 1.0467-10.298-0.83609-3.2645-1.8846-5.3129-5.0637-5.8739-8.5138-3.1737-0.8783-6.5139-1.3572-9.9677-1.3572-5.9398 0-11.551 1.3944-16.536 3.8636l5.967 10.694c3.2136-1.4965 6.7904-2.3362 10.567-2.3362zm0 50.179c-3.7774 0-7.3564-0.83972-10.569-2.3344l-5.9643 10.694c4.9852 2.4683 10.597 3.8632 16.537 3.8632 3.4537 0 6.794-0.47887 9.9681-1.3572 0.56102-3.4501 2.6099-6.6292 5.8748-8.5152 3.2604-1.8819 7.0327-2.0689 10.298-0.83473 6.351-6.2448 10.484-14.741 11.085-24.202l-12.236-0.18c-1.122 12.814-11.874 22.863-24.983 22.863zm17.579-55.54c4.1078 2.3725 9.359 0.96499 11.73-3.1414 2.3721-4.1082 0.9659-9.359-3.1424-11.731-4.1074-2.3712-9.3581-0.96408-11.73 3.1442-2.3739 4.1064-0.96681 9.3576 3.141 11.728z"/>
</svg>
